<svg xmlns="http://www.w3.org/2000/svg" viewBox="0 0 2000 140" width="2000" height="140" preserveAspectRatio="xMidYEnd meet">

<g opacity="1"><rect x="0.0" y="46.5" width="80.9" height="93.5" fill="#044955"/><rect x="101.3" y="84.3" width="83.0" height="55.7" fill="#044955"/><rect x="195.2" y="20.1" width="78.4" height="119.9" fill="#044955"/><rect x="290.0" y="76.0" width="52.9" height="64.0" fill="#044955"/><rect x="351.9" y="80.3" width="86.6" height="59.7" fill="#044955"/><rect x="448.5" y="23.3" width="107.5" height="116.7" fill="#044955"/><rect x="501.3" y="-4.3" width="2" height="27.7" fill="#00A651"/><circle cx="502.3" cy="-4.3" r="2.4" fill="#00A651"/><rect x="562.1" y="28.8" width="44.5" height="111.2" fill="#044955"/><rect x="575.7" y="13.5" width="17.3" height="15.3" fill="#044955"/><rect x="614.9" y="42.6" width="84.3" height="97.4" fill="#044955"/><rect x="642.6" y="20.9" width="28.9" height="21.6" fill="#044955"/><rect x="708.4" y="84.6" width="42.0" height="55.4" fill="#044955"/><rect x="720.0" y="74.4" width="18.9" height="10.2" fill="#044955"/><rect x="762.5" y="83.5" width="98.7" height="56.5" fill="#044955"/><rect x="810.9" y="72.9" width="2" height="10.6" fill="#00A651"/><circle cx="811.9" cy="72.9" r="2.4" fill="#00A651"/><rect x="876.5" y="55.0" width="118.7" height="85.0" fill="#044955"/><rect x="996.4" y="55.8" width="98.7" height="84.2" fill="#044955"/><rect x="1044.7" y="36.1" width="2" height="19.7" fill="#00A651"/><circle cx="1045.7" cy="36.1" r="2.4" fill="#00A651"/><rect x="1103.4" y="77.5" width="107.4" height="62.5" fill="#044955"/><rect x="1225.8" y="60.0" width="50.0" height="80.0" fill="#044955"/><rect x="1225.8" y="60.0" width="50.0" height="3" fill="#00A651"/><rect x="1296.3" y="56.5" width="90.4" height="83.5" fill="#044955"/><rect x="1320.0" y="42.1" width="43.0" height="14.4" fill="#044955"/><rect x="1399.0" y="17.0" width="40.7" height="123.0" fill="#044955"/><rect x="1442.7" y="28.4" width="46.4" height="111.6" fill="#044955"/><rect x="1491.5" y="38.7" width="84.8" height="101.3" fill="#044955"/><rect x="1509.0" y="19.3" width="49.9" height="19.4" fill="#044955"/><rect x="1590.1" y="83.1" width="79.0" height="56.9" fill="#044955"/><rect x="1628.5" y="66.2" width="2" height="16.9" fill="#00A651"/><circle cx="1629.5" cy="66.2" r="2.4" fill="#00A651"/><rect x="1590.1" y="83.1" width="79.0" height="3" fill="#00A651"/><rect x="1686.1" y="79.4" width="50.8" height="60.6" fill="#044955"/><rect x="1710.5" y="58.0" width="2" height="21.5" fill="#00A651"/><circle cx="1711.5" cy="58.0" r="2.4" fill="#00A651"/><rect x="1759.1" y="27.1" width="70.1" height="112.9" fill="#044955"/><rect x="1793.2" y="5.3" width="2" height="21.8" fill="#00A651"/><circle cx="1794.2" cy="5.3" r="2.4" fill="#00A651"/><rect x="1845.2" y="38.3" width="79.4" height="101.7" fill="#044955"/><rect x="1932.1" y="44.5" width="47.4" height="95.5" fill="#044955"/><rect x="1999.1" y="27.9" width="114.8" height="112.1" fill="#044955"/></g>
</svg>